<?xml version="1.0" encoding="utf-8"?>
<svg viewBox="21.261 31.827 439.97 282.697" xmlns="http://www.w3.org/2000/svg">
  <g style="" id="Territories" transform="matrix(1, 0, 0, 1, 0, 3.992308)">
    <path style="stroke: rgb(0, 0, 0); fill: none;" d="M 47.181 69.657 L 62.94 84.986 L 62.977 48.524 L 21.261 48.699 L 21.272 69.584 L 47.181 69.657 Z" id="Alaska"/>
    <path style="stroke: rgb(0, 0, 0); fill: none;" d="M 63.068 48.485 L 120.614 48.417 L 125.56 53.656 L 109.847 69.607 L 62.984 69.622 L 63.068 48.485 Z" id="Northwest Territory"/>
    <path style="stroke: rgb(0, 0, 0); fill: none;" d="M 136.191 43.222 L 167.857 74.918 C 167.857 74.918 188.651 53.53 188.741 53.709 C 188.831 53.888 188.708 28.021 188.708 28.021 L 151.981 27.835 L 136.191 43.222 Z" id="Greenland"/>
    <path style="stroke: rgb(0, 0, 0); fill: none;" d="M 63.054 69.678 L 63.053 101.351 L 94.618 101.102 C 94.618 101.102 94.606 69.685 94.562 69.685 C 94.518 69.685 63.054 69.678 63.054 69.678 Z" id="Alberta"/>
    <path style="stroke: rgb(0, 0, 0); fill: none;" d="M 94.857 69.875 L 109.449 69.489 L 120.421 80.423 L 120.507 90.546 L 110.001 101.163 L 94.666 101.154 L 94.857 69.875 Z" id="Ontario"/>
    <path style="stroke: rgb(0, 0, 0); fill: none;" d="M 120.737 80.23 L 136.783 64.415 L 146.348 74.604 L 146.135 90.649 L 136.602 101.303 L 120.506 101.181 L 120.737 80.23 Z" id="Quebec"/>
    <path style="stroke: rgb(0, 0, 0); stroke-linejoin: round; fill: none;" d="M 62.972 101.165 C 62.972 101.165 63.062 132.372 63.098 132.372 C 63.168 132.372 89.257 132.347 89.257 132.347 L 105.193 116.658 L 105.088 101.135 L 62.972 101.165 Z" id="Western US"/>
    <path style="stroke: rgb(0, 0, 0); fill: none;" d="M 136.653 101.238 L 136.604 116.264 L 120.604 132.429 L 89.408 132.438 L 105.281 116.36 L 105.156 101.086 L 136.653 101.238 Z" id="Eastern US"/>
    <path style="stroke: rgb(0, 0, 0); stroke-linejoin: round; fill: none;" d="M 120.501 132.398 L 105.146 147.877 L 94.451 147.999 L 120.89 174.61 L 105.193 174.685 L 63.135 132.425 L 120.501 132.398 Z" id="Central America"/>
    <path style="stroke: rgb(0, 0, 0); fill: none;" d="M 183.774 69.215 L 183.592 80.218 L 204.408 80.295 L 204.38 69.415 L 183.774 69.215 Z" id="Iceland"/>
    <path style="stroke: rgb(0, 0, 0); stroke-linecap: round; stroke-linejoin: round; fill: none;" d="M 225.037 90.993 L 240.806 90.695 L 240.9 80.099 L 256.791 79.849 C 256.806 79.851 256.839 48.633 256.839 48.633 L 224.997 80.449 L 225.037 90.993 Z" id="Scandinavia"/>
    <path style="stroke: rgb(0, 0, 0); fill: none;" d="M 193.612 90.532 L 204.196 90.471 L 204.223 111.713 L 204.07 121.79 C 204.075 121.79 183.204 121.799 183.204 121.799 L 183.325 111.709 L 193.691 111.793 L 193.612 90.532 Z" id="Great Britain"/>
    <path style="stroke: rgb(0, 0, 0); fill: none;" d="M 220.677 132.292 L 220.674 95.69 L 230.659 95.837 L 230.68 105.917 L 256.822 106.247 C 256.822 106.247 257.201 132.516 257.142 132.456 C 257.083 132.396 220.677 132.292 220.677 132.292 Z" id="Northern Europe"/>
    <path style="stroke: rgb(0, 0, 0); fill: none;" d="M 188.708 148.553 L 188.647 168.918 L 209.678 168.802 L 209.862 158.388 L 220.693 147.551 L 220.711 117.117 C 220.711 117.117 188.651 148.236 188.708 148.553 Z" id="Western Europe"/>
    <path style="stroke: rgb(0, 0, 0); fill: none;" d="M 220.624 147.489 L 220.716 154.015 L 230.609 164.13 L 230.607 148.483 L 246.376 163.948 L 246.196 132.603 L 220.72 132.431 L 220.624 147.489 Z" id="Southern Europe"/>
    <path style="stroke: rgb(0, 0, 0); paint-order: fill; stroke-linecap: round; stroke-linejoin: round; fill: none;" d="M 309.097 48.961 L 256.949 48.516 L 257.475 131.96 L 277.836 152.848 L 277.755 136.769 L 309.066 105.674 L 309.097 48.961 Z" id="Ukraine"/>
    <path style="stroke: rgb(0, 0, 0); fill: none;" d="M 309.052 105.533 L 335.689 131.462 L 335.739 64.22 L 319.303 49.002 L 309.169 48.982 L 309.052 105.533 Z" id="Ural"/>
    <path style="stroke: rgb(0, 0, 0); fill: none;" d="M 319.483 49.008 L 340.465 28.501 L 361.486 48.688 C 361.486 48.688 362.032 105.47 362.032 105.535 C 362.032 105.6 336.026 131.244 336.026 131.244 L 336.115 64.38 L 319.483 49.008 Z" id="Siberia"/>
    <path style="stroke: rgb(0, 0, 0); fill: none;" d="M 392.245 48.696 C 392.245 48.696 392.217 69.51 392.217 69.432 C 392.217 69.354 381.686 80.268 381.686 80.268 L 361.658 80.112 L 361.826 48.723 L 376.807 48.521 L 392.245 48.696 Z" id="Yakutsk"/>
    <path style="stroke: rgb(0, 0, 0); fill: none;" d="M 361.785 105.743 L 382.309 105.997 L 381.843 79.942 L 361.577 79.949 L 361.785 105.743 Z" id="Irkutsk"/>
    <path style="stroke: rgb(0, 0, 0); fill: none;" d="M 381.955 80.015 L 382.393 105.768 L 408.835 105.884 L 461.231 48.598 L 392.294 48.696 L 392.356 69.603 L 381.955 80.015 Z" id="Kamchatka"/>
    <path style="stroke: rgb(0, 0, 0); fill: none;" d="M 314.57 153.639 L 288.15 153.522 L 287.9 127.088 L 309.09 105.598 L 336.158 132.028 L 314.57 153.639 Z" id="Afghanisitan"/>
    <path style="stroke: rgb(0, 0, 0); fill: none;" d="M 377.519 184.517 L 329.76 137.993 L 351.383 116.592 L 372.411 137.512 L 392.94 137.729 L 408.679 153.287 L 377.519 184.517 Z" id="China"/>
    <path style="stroke: rgb(0, 0, 0); fill: none;" d="M 351.432 116.729 L 372.587 137.544 C 372.587 137.544 393.309 137.719 393.232 137.641 C 393.203 137.611 403.155 126.709 403.155 126.709 L 403.333 105.966 L 361.589 105.981 L 351.432 116.729 Z" id="Mongolia"/>
    <path style="stroke: rgb(0, 0, 0); fill: none;" d="M 419.098 106.715 L 419.009 131.735 L 410.064 141.361 L 418.171 148.068 L 428.621 136.259 L 428.968 106.801 L 419.098 106.715 Z" id="Japan"/>
    <path style="stroke: rgb(0, 0, 0); fill: none;" d="M 246.821 153.56 L 314.6 153.717 L 314.354 168.925 L 305.222 180.332 C 305.222 180.332 319.578 195.271 319.537 195.23 C 319.495 195.188 304.473 210.331 304.473 210.331 C 304.473 210.331 246.884 153.674 246.821 153.56 Z" id="Middle East"/>
    <path style="stroke: rgb(0, 0, 0); stroke-linejoin: round; fill: none;" d="M 89.117 174.676 L 73.693 189.544 L 151.595 189.759 L 136.439 174.459 C 136.439 174.459 89.427 174.665 89.117 174.676 Z" id="Venezuela"/>
    <path style="stroke: rgb(0, 0, 0); stroke-linejoin: round; fill: none;" d="M 73.626 189.648 L 73.654 195.101 C 73.654 195.101 110.388 237.594 110.388 237.551 C 110.388 237.482 137.136 237.566 137.136 237.566 L 94.297 189.731 L 73.626 189.648 Z" id="Peru"/>
    <path style="stroke: rgb(0, 0, 0); fill: none;" d="M 157.119 189.813 L 172.715 205.858 L 172.645 215.899 L 151.826 237.112 L 136.942 237.227 L 94.1 189.81 L 157.119 189.813 Z" id="Brazil"/>
    <path style="stroke: rgb(0, 0, 0); fill: none;" d="M 110.299 237.699 L 110.413 293.488 L 126.054 309.515 L 125.981 279.459 L 126.152 263.223 L 151.703 237.338 L 110.299 237.699 Z" id="Argentina"/>
    <path style="stroke: rgb(0, 0, 0); fill: none;" d="M 188.799 190.247 C 188.799 190.247 188.729 205.618 188.818 205.618 C 188.907 205.618 235.056 237.703 235.056 237.703 L 267.526 205.685 L 235.469 174.525 L 204.464 174.595 L 188.799 190.247 Z" id="Northern Africa"/>
    <path style="stroke: rgb(0, 0, 0); fill: none;" d="M 272.829 179.303 L 272.754 200.249 L 267.268 205.642 L 235.456 174.435 L 267.792 174.151 L 272.829 179.303 Z" id="Egypt"/>
    <path style="stroke: rgb(0, 0, 0); fill: none;" d="M 299.161 226.761 L 273.021 200.225 L 256.904 216.203 L 256.77 258.162 L 283.243 258.093 L 283.275 242.764 L 299.161 226.761 Z" id="Eastern Africa"/>
    <path style="stroke: rgb(0, 0, 0); fill: none;" d="M 235.237 237.601 L 235.503 247.874 L 246.287 258.126 L 257.051 258.118 L 256.728 216.314 L 235.237 237.601 Z" id="Congo"/>
    <path style="stroke: rgb(0, 0, 0); fill: none;" d="M 267.373 304.89 L 267.472 273.92 L 282.955 258.34 L 246.558 258.278 L 235.566 247.763 L 235.477 304.516 L 267.373 304.89 Z" id="South Africa"/>
    <path style="stroke: rgb(0, 0, 0); fill: none;" d="M 287.883 273.956 L 287.95 294.906 L 304.058 294.725 L 304.429 263.416 L 293.789 273.785 L 287.883 273.956 Z" id="Madagascar"/>
    <path style="stroke: rgb(0, 0, 0); fill: none;" d="M 314.63 169.311 L 314.453 153.5 L 329.746 137.858 L 377.669 185.113 L 330.191 226.681 L 330.127 185.136 L 314.63 169.311 Z" id="India"/>
    <path style="stroke: rgb(0, 0, 0); fill: none;" d="M 360.837 199.771 L 377.909 216.256 L 387.827 205.725 L 387.847 195.053 L 377.714 184.93 L 360.837 199.771 Z" id="Siam"/>
    <path style="stroke: rgb(0, 0, 0); fill: none;" d="M 356.189 216.247 C 356.189 216.247 371.243 232.838 371.243 232.88 C 371.243 232.922 382.381 220.969 382.381 220.969 C 382.381 220.969 398.152 237.534 398.11 237.533 C 398.068 237.532 377.096 259.159 377.096 259.159 L 356.151 236.846 L 356.189 216.247 Z" id="Indonesia"/>
    <path style="stroke: rgb(0, 0, 0); fill: none;" d="M 398.596 221.588 L 398.407 216.085 L 419.155 216.257 L 429.551 226.947 L 429.601 237.446 C 429.601 237.446 414.164 237.158 414.121 237.157 C 414.078 237.156 398.5 221.64 398.596 221.588 Z" id="New Guinea"/>
    <path style="stroke: rgb(0, 0, 0); fill: none;" d="M 382.279 269.03 C 382.279 269.03 403.536 247.578 403.494 247.578 C 403.474 247.578 419.237 247.751 419.237 247.751 L 419.28 294.155 L 398.228 294.243 L 382.315 310.098 L 382.279 269.03 Z" id="Western Australia"/>
    <path style="stroke: rgb(0, 0, 0); fill: none;" d="M 434.718 242.633 L 419.435 258.114 C 419.435 258.114 419.329 294.181 419.287 294.18 C 419.245 294.179 435.031 310.532 435.031 310.532 L 450.599 294.341 L 450.877 258.294 L 434.718 242.633 Z" id="Eastern Australia"/>
  </g>
</svg>